<?xml version="1.0" standalone="no"?>
<!DOCTYPE svg PUBLIC "-//W3C//DTD SVG 20010904//EN"
 "http://www.w3.org/TR/2001/REC-SVG-20010904/DTD/svg10.dtd">
<svg version="1.0" xmlns="http://www.w3.org/2000/svg"
 width="512.000000pt" height="512.000000pt" viewBox="0 0 512.000000 512.000000"
 preserveAspectRatio="xMidYMid meet">

<g transform="translate(0.000000,512.000000) scale(0.100000,-0.100000)"
fill="#000000" stroke="none">
<path d="M1174 5053 c-10 -70 2 -211 25 -275 l20 -58 -22 -11 c-15 -8 -67 -10
-174 -6 -154 6 -178 2 -153 -28 6 -8 8 -20 4 -27 -4 -7 -4 -10 1 -6 6 6 65
-62 65 -76 0 -7 72 -87 133 -148 58 -58 186 -138 220 -138 9 0 17 -4 17 -10 0
-5 7 -7 15 -4 24 10 18 -4 -30 -62 -108 -133 -172 -348 -146 -491 16 -94 46
-182 80 -234 l28 -44 -31 -40 c-17 -22 -54 -65 -81 -95 -151 -164 -278 -405
-332 -633 -24 -99 -24 -313 1 -427 23 -111 119 -398 152 -458 90 -162 196
-262 218 -206 5 13 26 -2 94 -68 48 -46 128 -111 179 -145 51 -33 89 -64 85
-69 -4 -5 -3 -6 2 -2 5 4 36 -8 70 -26 137 -75 194 -104 251 -126 33 -13 62
-25 64 -26 2 -2 -9 -32 -25 -66 -27 -58 -29 -72 -29 -173 1 -133 18 -198 78
-287 46 -70 80 -91 145 -92 42 -1 43 -2 78 -65 88 -158 167 -207 225 -138 24
27 109 176 109 189 0 5 4 6 10 3 5 -3 7 0 5 8 -3 7 -1 24 4 38 5 13 10 19 10
12 1 -18 52 -122 89 -184 36 -58 85 -99 119 -99 39 0 101 57 153 143 50 83 53
85 96 90 78 8 170 102 208 212 25 70 31 225 13 295 -11 39 -12 57 -4 62 13 8
-9 39 -25 35 -6 -1 -12 3 -14 8 -3 6 13 17 33 24 21 8 84 36 141 63 57 26 108
45 114 42 6 -4 8 -2 5 4 -7 9 44 45 116 82 43 22 165 125 243 207 l71 74 17
-26 c12 -18 25 -25 49 -24 27 0 42 11 91 67 104 120 181 277 233 477 47 181
60 309 45 431 -7 53 -9 101 -5 107 3 7 3 9 -2 5 -4 -4 -22 36 -40 90 -79 235
-196 431 -360 607 -26 28 -54 63 -61 78 -14 25 -13 31 9 67 13 22 27 37 31 33
4 -4 4 0 1 8 -3 9 4 40 16 70 31 74 31 248 1 362 -12 42 -19 85 -16 95 4 11 3
13 -3 5 -5 -8 -23 16 -51 71 -23 46 -55 96 -71 112 l-29 29 43 17 c141 56 322
231 379 369 l15 36 -147 7 c-81 4 -159 8 -174 8 -32 1 -33 6 -13 55 38 90 54
308 25 337 -11 11 -40 -7 -135 -84 -38 -31 -95 -75 -125 -97 -30 -23 -80 -61
-110 -84 -190 -147 -402 -261 -620 -333 -74 -25 -179 -63 -234 -85 l-98 -40
-82 30 c-44 17 -161 57 -258 90 -98 33 -221 80 -273 104 -125 59 -307 173
-298 188 4 6 0 8 -10 4 -10 -3 -17 -3 -17 1 0 4 -13 16 -30 25 -31 19 -32 46
-1 48 12 0 13 2 2 6 -8 3 -20 -2 -27 -11 -11 -16 -16 -14 -61 20 -26 20 -51
45 -55 55 -4 10 -17 23 -30 29 -22 11 -22 10 2 -9 14 -11 20 -21 15 -21 -6 0
-24 11 -40 25 -76 63 -189 145 -201 145 -8 0 -16 -18 -20 -47z m315 -288 c24
-19 40 -35 35 -35 -12 0 -51 27 -76 52 -30 30 -6 20 41 -17z m187 -131 c92
-61 338 -173 490 -223 224 -74 313 -111 349 -143 l33 -29 27 25 c29 27 89 53
285 122 256 89 435 172 564 258 38 25 73 46 78 46 23 0 67 -43 82 -80 20 -50
20 -74 1 -90 -8 -7 -15 -20 -15 -30 0 -41 125 -33 288 17 67 21 86 23 95 13 9
-10 9 -11 0 -6 -17 10 -40 -4 -23 -14 22 -14 -85 -96 -162 -124 -63 -23 -97
-28 -251 -35 l-179 -8 -75 -39 c-41 -21 -108 -64 -149 -96 -40 -32 -115 -85
-166 -118 -167 -106 -198 -131 -233 -178 -55 -74 -68 -135 -63 -279 5 -121 5
-123 -17 -123 -12 0 -32 -9 -45 -20 l-23 -20 -29 25 c-21 18 -42 25 -70 25
l-40 0 7 39 c3 21 7 81 7 133 1 82 -2 102 -25 151 -34 75 -115 159 -202 210
-38 22 -113 73 -165 112 -203 152 -284 185 -455 185 -233 1 -329 34 -452 154
-40 39 -73 74 -73 78 0 3 28 -5 63 -19 108 -44 230 -81 272 -83 95 -4 115 -1
115 20 0 10 -9 24 -20 30 -11 6 -20 17 -20 25 0 31 42 103 66 114 17 7 24 17
20 26 -5 13 -1 13 27 -1 17 -9 55 -32 83 -50z m-25 -388 c73 -14 149 -28 167
-32 l34 -7 -36 -12 c-158 -54 -284 -201 -306 -356 -24 -162 74 -338 226 -405
158 -70 358 -52 519 46 36 22 68 40 71 40 3 0 2 -15 -1 -32 -24 -110 -113
-190 -270 -244 -103 -35 -264 -40 -360 -10 -116 35 -206 87 -282 161 -108 107
-156 232 -157 415 -1 92 2 114 28 184 42 114 169 275 217 276 8 0 76 -11 150
-24z m2030 -44 c35 -37 76 -93 91 -123 37 -76 72 -204 73 -261 0 -25 3 -41 7
-35 4 7 7 -1 7 -18 0 -16 -3 -24 -6 -17 -10 26 -20 10 -26 -42 -3 -30 -17 -82
-32 -117 -15 -35 -28 -72 -28 -81 -1 -9 -4 -15 -8 -12 -4 2 -10 -3 -13 -12 -4
-10 -2 -13 6 -8 19 12 -28 -48 -64 -82 -74 -69 -191 -133 -291 -160 -70 -19
-248 -18 -322 1 -130 33 -252 112 -292 188 -19 39 -33 84 -26 91 3 2 26 -10
51 -29 157 -111 380 -127 544 -38 69 38 143 114 181 186 30 59 32 67 32 172 0
104 -2 114 -32 175 -18 36 -47 80 -64 99 -40 42 -122 94 -174 111 l-40 13 28
10 c31 10 280 55 313 56 14 1 44 -22 85 -67z m-1658 -256 l-5 -45 47 15 c72
21 119 18 152 -10 26 -23 28 -29 27 -99 -1 -62 -6 -83 -28 -121 -86 -148 -246
-116 -271 54 -5 35 -1 54 14 85 25 46 26 55 8 55 -8 0 -22 9 -32 20 -15 17
-16 22 -4 36 17 21 70 54 85 54 8 0 10 -15 7 -44z m1125 18 c28 -19 28 -49 0
-68 l-22 -15 24 -50 c18 -39 21 -59 16 -92 -8 -48 -49 -110 -88 -133 -118 -70
-264 115 -218 278 12 43 13 44 51 42 21 -1 39 0 39 3 0 3 26 5 58 3 51 -3 60
-1 81 22 29 30 30 31 59 10z m699 -281 c-3 -10 -5 -2 -5 17 0 19 2 27 5 18 2
-10 2 -26 0 -35z m-1327 -275 c11 -18 23 -44 26 -58 12 -53 16 -55 31 -13 15
43 54 93 73 93 26 0 20 -39 -20 -138 -54 -133 -78 -182 -89 -182 -5 0 -12 17
-15 38 -4 20 -23 88 -43 149 -19 62 -33 119 -29 128 10 26 45 17 66 -17z m-94
-161 c44 -112 19 -111 -33 0 -16 34 -22 60 -18 75 7 20 8 20 18 3 5 -10 20
-45 33 -78z m270 -20 c-26 -60 -87 -146 -113 -161 -10 -5 -6 7 11 35 15 24 48
80 73 123 52 88 67 89 29 3z m-346 -54 c64 -138 170 -273 204 -260 32 12 130
147 179 247 29 58 53 107 54 109 2 2 11 -3 20 -12 31 -27 138 -76 219 -98 154
-43 377 -25 537 43 26 11 50 18 53 15 3 -3 -8 -31 -24 -63 -115 -232 -139
-404 -103 -709 15 -119 20 -202 15 -245 -25 -248 -132 -466 -327 -663 -195
-198 -408 -279 -692 -264 -120 7 -248 38 -338 83 -286 144 -504 432 -572 756
-19 88 -19 181 0 333 33 260 12 401 -96 656 -27 64 -47 123 -43 132 5 13 16
10 72 -18 37 -18 89 -41 115 -49 68 -23 229 -39 313 -32 83 7 245 61 314 105
25 16 47 29 50 30 3 0 25 -43 50 -96z m193 -126 c20 -8 23 -27 4 -27 -16 0
-40 25 -56 60 l-12 25 23 -26 c13 -14 32 -28 41 -32z m0 -1868 l129 3 -47 -43
c-26 -24 -61 -63 -77 -87 l-30 -44 -19 41 c-10 22 -39 64 -66 93 -26 28 -41
47 -33 43 8 -5 73 -8 143 -6z m-207 -141 c-11 -35 -22 -65 -24 -67 -1 -3 -12
5 -24 16 -18 19 -19 25 -9 54 20 59 39 81 60 70 18 -10 18 -13 -3 -73z m-116
67 c0 -15 -44 -63 -53 -58 -6 3 -7 1 -3 -5 3 -6 2 -13 -4 -17 -6 -3 -19 -23
-29 -43 l-19 -37 -7 58 c-9 69 2 86 62 97 53 11 53 11 53 5z m539 -31 c12 -19
21 -41 21 -48 0 -13 -38 -52 -43 -45 -13 16 -46 113 -41 120 12 20 43 7 63
-27z m174 -4 c45 -28 47 -32 47 -74 0 -53 -12 -65 -33 -32 -9 12 -32 38 -51
57 -36 33 -49 79 -23 79 7 0 34 -13 60 -30z"/>
<path d="M3832 3840 c0 -14 2 -19 5 -12 2 6 2 18 0 25 -3 6 -5 1 -5 -13z"/>
<path d="M1872 2747 c-39 -62 -40 -106 -3 -179 56 -109 112 -140 196 -108 22
8 25 13 15 25 -11 14 -28 18 -105 30 -69 10 -69 11 -75 147 l-5 123 -23 -38z"/>
<path d="M3115 2662 c0 -83 -4 -124 -13 -135 -8 -9 -38 -18 -75 -22 -70 -8
-97 -19 -97 -40 0 -22 87 -20 130 3 19 11 44 35 55 54 11 19 30 50 42 69 13
19 23 48 23 64 0 33 -38 117 -55 122 -7 2 -10 -39 -10 -115z"/>
<path d="M2795 2605 c-86 -80 -105 -90 -177 -100 -32 -4 -48 -11 -48 -20 0
-39 85 -41 146 -4 34 21 120 109 148 151 37 56 8 45 -69 -27z"/>
<path d="M2120 2651 c0 -15 88 -127 125 -160 20 -17 47 -34 62 -37 33 -9 77 7
81 28 2 13 -8 18 -45 24 -68 10 -94 26 -154 94 -49 57 -69 71 -69 51z"/>
<path d="M2027 2333 c-16 -15 -5 -72 23 -120 66 -115 174 -193 266 -193 44 0
84 16 84 34 0 18 -22 26 -73 26 -23 0 -61 9 -84 20 -43 19 -143 110 -143 130
0 13 56 13 82 -1 42 -22 31 4 -24 57 -46 44 -63 54 -90 54 -19 0 -38 -3 -41
-7z"/>
<path d="M2928 2322 c-39 -26 -109 -108 -83 -98 34 14 95 19 95 9 0 -17 -78
-100 -114 -123 -19 -11 -65 -26 -102 -33 -51 -9 -70 -17 -72 -30 -5 -23 36
-38 85 -30 61 9 124 47 179 105 64 67 94 125 94 178 0 37 -2 40 -27 40 -16 0
-40 -8 -55 -18z"/>
<path d="M1715 2251 c14 -120 104 -216 221 -235 32 -6 45 -3 65 13 30 25 21
34 -52 50 -94 20 -168 78 -211 166 l-30 60 7 -54z"/>
<path d="M3282 2229 c-45 -95 -116 -145 -235 -164 -32 -5 -38 -10 -35 -28 3
-19 10 -22 50 -25 58 -4 149 39 195 91 35 41 66 123 61 166 -3 27 -6 23 -36
-40z"/>
<path d="M2440 1775 c-21 -26 3 -39 81 -43 72 -4 119 9 119 34 0 18 -25 24
-110 24 -58 0 -81 -4 -90 -15z"/>
<path d="M2998 1728 c-49 -105 -151 -178 -261 -186 -64 -5 -83 -23 -51 -47 53
-40 199 6 265 83 37 43 83 158 77 189 -2 12 -12 -1 -30 -39z"/>
<path d="M2060 1717 c0 -42 43 -118 93 -164 69 -64 179 -89 224 -51 25 20 2
38 -51 38 -33 0 -66 8 -91 21 -51 27 -131 104 -155 149 l-19 35 -1 -28z"/>
<path d="M2445 1150 c3 -5 12 -7 20 -3 21 7 19 13 -6 13 -11 0 -18 -4 -14 -10z"/>
<path d="M4218 4693 c7 -3 16 -2 19 1 4 3 -2 6 -13 5 -11 0 -14 -3 -6 -6z"/>
</g>
</svg>
